<mxfile host="app.diagrams.net" modified="2023-11-14T13:56:49.268Z" agent="Mozilla/5.0 (X11; Ubuntu; Linux x86_64; rv:109.0) Gecko/20100101 Firefox/119.0" etag="GUAx1EVDbUqryp-E-_TB" version="22.1.0" type="device">
  <diagram name="Page-1" id="dK42RDmOKsvTsrfNAPbs">
    <mxGraphModel dx="1728" dy="929" grid="1" gridSize="10" guides="1" tooltips="1" connect="1" arrows="1" fold="1" page="1" pageScale="1" pageWidth="850" pageHeight="1100" math="0" shadow="0">
      <root>
        <mxCell id="0" />
        <mxCell id="1" parent="0" />
        <mxCell id="vsru8TXCUnkoxLvhWmqU-9" value="" style="edgeStyle=orthogonalEdgeStyle;rounded=0;orthogonalLoop=1;jettySize=auto;html=1;" edge="1" parent="1" source="q3prYv0-p_nsQXFJC9uw-30" target="vsru8TXCUnkoxLvhWmqU-8">
          <mxGeometry relative="1" as="geometry" />
        </mxCell>
        <mxCell id="q3prYv0-p_nsQXFJC9uw-30" value="Connected Idle" style="rounded=1;whiteSpace=wrap;html=1;" parent="1" vertex="1">
          <mxGeometry x="450" y="631.88" width="100" height="30" as="geometry" />
        </mxCell>
        <mxCell id="lgq6noS7nZ7h5ywPPUq3-72" style="edgeStyle=orthogonalEdgeStyle;rounded=0;orthogonalLoop=1;jettySize=auto;html=1;exitX=1;exitY=0.5;exitDx=0;exitDy=0;" parent="1" source="q3prYv0-p_nsQXFJC9uw-32" target="q3prYv0-p_nsQXFJC9uw-40" edge="1">
          <mxGeometry relative="1" as="geometry" />
        </mxCell>
        <mxCell id="vsru8TXCUnkoxLvhWmqU-33" style="edgeStyle=orthogonalEdgeStyle;rounded=0;orthogonalLoop=1;jettySize=auto;html=1;exitX=0.5;exitY=1;exitDx=0;exitDy=0;entryX=0.5;entryY=0;entryDx=0;entryDy=0;" edge="1" parent="1" source="q3prYv0-p_nsQXFJC9uw-32" target="lgq6noS7nZ7h5ywPPUq3-34">
          <mxGeometry relative="1" as="geometry" />
        </mxCell>
        <mxCell id="q3prYv0-p_nsQXFJC9uw-32" value="Parent request connection answer" style="rounded=1;whiteSpace=wrap;html=1;" parent="1" vertex="1">
          <mxGeometry x="735" y="1071.25" width="130" height="30" as="geometry" />
        </mxCell>
        <mxCell id="vsru8TXCUnkoxLvhWmqU-29" value="" style="edgeStyle=orthogonalEdgeStyle;rounded=0;orthogonalLoop=1;jettySize=auto;html=1;" edge="1" parent="1" source="q3prYv0-p_nsQXFJC9uw-39" target="vsru8TXCUnkoxLvhWmqU-26">
          <mxGeometry relative="1" as="geometry" />
        </mxCell>
        <mxCell id="q3prYv0-p_nsQXFJC9uw-39" value="Idle state" style="rounded=1;whiteSpace=wrap;html=1;" parent="1" vertex="1">
          <mxGeometry x="455" y="1072" width="100" height="30" as="geometry" />
        </mxCell>
        <mxCell id="lgq6noS7nZ7h5ywPPUq3-75" style="edgeStyle=orthogonalEdgeStyle;rounded=0;orthogonalLoop=1;jettySize=auto;html=1;" parent="1" edge="1">
          <mxGeometry relative="1" as="geometry">
            <mxPoint x="1130" y="1031.25" as="targetPoint" />
            <mxPoint x="1030" y="1087" as="sourcePoint" />
            <Array as="points">
              <mxPoint x="1090" y="1087.25" />
              <mxPoint x="1090" y="1031.25" />
            </Array>
          </mxGeometry>
        </mxCell>
        <mxCell id="q3prYv0-p_nsQXFJC9uw-40" value="Connected Idle" style="rounded=1;whiteSpace=wrap;html=1;" parent="1" vertex="1">
          <mxGeometry x="930" y="1071.25" width="100" height="30" as="geometry" />
        </mxCell>
        <mxCell id="lgq6noS7nZ7h5ywPPUq3-21" style="edgeStyle=orthogonalEdgeStyle;rounded=0;orthogonalLoop=1;jettySize=auto;html=1;exitX=1;exitY=0.5;exitDx=0;exitDy=0;entryX=0;entryY=0.5;entryDx=0;entryDy=0;" parent="1" source="q3prYv0-p_nsQXFJC9uw-43" target="lgq6noS7nZ7h5ywPPUq3-19" edge="1">
          <mxGeometry relative="1" as="geometry" />
        </mxCell>
        <mxCell id="vsru8TXCUnkoxLvhWmqU-36" style="edgeStyle=orthogonalEdgeStyle;rounded=0;orthogonalLoop=1;jettySize=auto;html=1;exitX=0.5;exitY=1;exitDx=0;exitDy=0;" edge="1" parent="1" source="q3prYv0-p_nsQXFJC9uw-43">
          <mxGeometry relative="1" as="geometry">
            <mxPoint x="869" y="710" as="targetPoint" />
          </mxGeometry>
        </mxCell>
        <mxCell id="q3prYv0-p_nsQXFJC9uw-43" value="Transmitting (OTAARegAck) Beacon" style="rounded=1;whiteSpace=wrap;html=1;" parent="1" vertex="1">
          <mxGeometry x="804" y="630.01" width="130" height="33.75" as="geometry" />
        </mxCell>
        <mxCell id="q3prYv0-p_nsQXFJC9uw-54" style="edgeStyle=orthogonalEdgeStyle;rounded=0;orthogonalLoop=1;jettySize=auto;html=1;exitX=1;exitY=0.5;exitDx=0;exitDy=0;entryX=0;entryY=0.5;entryDx=0;entryDy=0;" parent="1" source="q3prYv0-p_nsQXFJC9uw-45" target="q3prYv0-p_nsQXFJC9uw-55" edge="1">
          <mxGeometry relative="1" as="geometry">
            <mxPoint x="280" y="648" as="targetPoint" />
          </mxGeometry>
        </mxCell>
        <mxCell id="q3prYv0-p_nsQXFJC9uw-45" value="GPS Time" style="whiteSpace=wrap;html=1;aspect=fixed;" parent="1" vertex="1">
          <mxGeometry x="235" y="620" width="55" height="55" as="geometry" />
        </mxCell>
        <mxCell id="q3prYv0-p_nsQXFJC9uw-58" style="edgeStyle=orthogonalEdgeStyle;rounded=0;orthogonalLoop=1;jettySize=auto;html=1;exitX=0.5;exitY=0;exitDx=0;exitDy=0;entryX=0.5;entryY=0;entryDx=0;entryDy=0;" parent="1" source="q3prYv0-p_nsQXFJC9uw-55" target="q3prYv0-p_nsQXFJC9uw-45" edge="1">
          <mxGeometry relative="1" as="geometry" />
        </mxCell>
        <mxCell id="q3prYv0-p_nsQXFJC9uw-148" style="edgeStyle=orthogonalEdgeStyle;rounded=0;orthogonalLoop=1;jettySize=auto;html=1;exitX=1;exitY=0.5;exitDx=0;exitDy=0;" parent="1" source="q3prYv0-p_nsQXFJC9uw-55" edge="1" target="q3prYv0-p_nsQXFJC9uw-30">
          <mxGeometry relative="1" as="geometry">
            <mxPoint x="470" y="648" as="targetPoint" />
          </mxGeometry>
        </mxCell>
        <mxCell id="q3prYv0-p_nsQXFJC9uw-55" value="hardcoded parent" style="rounded=0;whiteSpace=wrap;html=1;" parent="1" vertex="1">
          <mxGeometry x="330" y="622.5" width="90" height="50" as="geometry" />
        </mxCell>
        <mxCell id="q3prYv0-p_nsQXFJC9uw-155" style="edgeStyle=orthogonalEdgeStyle;rounded=0;orthogonalLoop=1;jettySize=auto;html=1;exitX=1;exitY=0.5;exitDx=0;exitDy=0;entryX=0;entryY=0.5;entryDx=0;entryDy=0;" parent="1" source="q3prYv0-p_nsQXFJC9uw-56" target="q3prYv0-p_nsQXFJC9uw-39" edge="1">
          <mxGeometry relative="1" as="geometry" />
        </mxCell>
        <mxCell id="q3prYv0-p_nsQXFJC9uw-56" value="child node" style="rounded=0;whiteSpace=wrap;html=1;" parent="1" vertex="1">
          <mxGeometry x="330" y="1061.25" width="90" height="50" as="geometry" />
        </mxCell>
        <mxCell id="q3prYv0-p_nsQXFJC9uw-59" value="timestamp request" style="text;html=1;strokeColor=none;fillColor=none;align=center;verticalAlign=middle;whiteSpace=wrap;rounded=0;" parent="1" vertex="1">
          <mxGeometry x="290" y="570" width="60" height="30" as="geometry" />
        </mxCell>
        <mxCell id="q3prYv0-p_nsQXFJC9uw-69" style="edgeStyle=orthogonalEdgeStyle;rounded=0;orthogonalLoop=1;jettySize=auto;html=1;exitX=1;exitY=0.5;exitDx=0;exitDy=0;entryX=0;entryY=0.5;entryDx=0;entryDy=0;" parent="1" target="q3prYv0-p_nsQXFJC9uw-56" edge="1">
          <mxGeometry relative="1" as="geometry">
            <mxPoint x="285" y="1086.2499999999998" as="sourcePoint" />
          </mxGeometry>
        </mxCell>
        <mxCell id="q3prYv0-p_nsQXFJC9uw-79" value="0" style="rounded=0;whiteSpace=wrap;html=1;rotation=-180;" parent="1" vertex="1">
          <mxGeometry x="474" y="1189.25" width="30" height="20" as="geometry" />
        </mxCell>
        <mxCell id="q3prYv0-p_nsQXFJC9uw-80" value="" style="rounded=0;whiteSpace=wrap;html=1;rotation=0;strokeColor=#000000;fillColor=#FF9933;" parent="1" vertex="1">
          <mxGeometry x="504" y="1189.25" width="30" height="20" as="geometry" />
        </mxCell>
        <mxCell id="q3prYv0-p_nsQXFJC9uw-81" value="" style="rounded=0;whiteSpace=wrap;html=1;rotation=-180;strokeColor=#000000;fillColor=#FF9933;" parent="1" vertex="1">
          <mxGeometry x="534" y="1189.25" width="30" height="20" as="geometry" />
        </mxCell>
        <mxCell id="q3prYv0-p_nsQXFJC9uw-82" value="" style="rounded=0;whiteSpace=wrap;html=1;rotation=-180;strokeColor=#000000;fillColor=#FF9933;" parent="1" vertex="1">
          <mxGeometry x="564" y="1189.25" width="30" height="20" as="geometry" />
        </mxCell>
        <mxCell id="q3prYv0-p_nsQXFJC9uw-83" value="" style="rounded=0;whiteSpace=wrap;html=1;rotation=-180;strokeColor=#000000;fillColor=#FF9933;" parent="1" vertex="1">
          <mxGeometry x="594" y="1189.25" width="30" height="20" as="geometry" />
        </mxCell>
        <mxCell id="q3prYv0-p_nsQXFJC9uw-84" value="" style="rounded=0;whiteSpace=wrap;html=1;rotation=-180;strokeColor=#000000;fillColor=#FF9933;" parent="1" vertex="1">
          <mxGeometry x="624" y="1189.25" width="30" height="20" as="geometry" />
        </mxCell>
        <mxCell id="q3prYv0-p_nsQXFJC9uw-85" value="" style="rounded=0;whiteSpace=wrap;html=1;rotation=-180;" parent="1" vertex="1">
          <mxGeometry x="654" y="1189.25" width="30" height="20" as="geometry" />
        </mxCell>
        <mxCell id="q3prYv0-p_nsQXFJC9uw-86" value="" style="rounded=0;whiteSpace=wrap;html=1;rotation=-180;" parent="1" vertex="1">
          <mxGeometry x="684" y="1189.25" width="30" height="20" as="geometry" />
        </mxCell>
        <mxCell id="q3prYv0-p_nsQXFJC9uw-87" value="" style="rounded=0;whiteSpace=wrap;html=1;rotation=-180;" parent="1" vertex="1">
          <mxGeometry x="714" y="1189.25" width="30" height="20" as="geometry" />
        </mxCell>
        <mxCell id="q3prYv0-p_nsQXFJC9uw-88" value="" style="rounded=0;whiteSpace=wrap;html=1;rotation=-180;" parent="1" vertex="1">
          <mxGeometry x="744" y="1189.25" width="30" height="20" as="geometry" />
        </mxCell>
        <mxCell id="q3prYv0-p_nsQXFJC9uw-89" value="" style="rounded=0;whiteSpace=wrap;html=1;rotation=-180;" parent="1" vertex="1">
          <mxGeometry x="774" y="1189.25" width="30" height="20" as="geometry" />
        </mxCell>
        <mxCell id="q3prYv0-p_nsQXFJC9uw-90" value="" style="rounded=0;whiteSpace=wrap;html=1;rotation=-180;" parent="1" vertex="1">
          <mxGeometry x="804" y="1189.25" width="30" height="20" as="geometry" />
        </mxCell>
        <mxCell id="q3prYv0-p_nsQXFJC9uw-91" value="" style="rounded=0;whiteSpace=wrap;html=1;rotation=-180;" parent="1" vertex="1">
          <mxGeometry x="834" y="1189.25" width="30" height="20" as="geometry" />
        </mxCell>
        <mxCell id="q3prYv0-p_nsQXFJC9uw-92" value="" style="rounded=0;whiteSpace=wrap;html=1;rotation=-180;" parent="1" vertex="1">
          <mxGeometry x="864" y="1189.25" width="30" height="20" as="geometry" />
        </mxCell>
        <mxCell id="q3prYv0-p_nsQXFJC9uw-93" value="" style="rounded=0;whiteSpace=wrap;html=1;rotation=-180;" parent="1" vertex="1">
          <mxGeometry x="894" y="1189.25" width="30" height="20" as="geometry" />
        </mxCell>
        <mxCell id="q3prYv0-p_nsQXFJC9uw-94" value="" style="rounded=0;whiteSpace=wrap;html=1;rotation=-180;strokeColor=#000000;fillColor=#FF9933;" parent="1" vertex="1">
          <mxGeometry x="924" y="1189.25" width="30" height="20" as="geometry" />
        </mxCell>
        <mxCell id="q3prYv0-p_nsQXFJC9uw-95" value="" style="rounded=0;whiteSpace=wrap;html=1;rotation=-180;strokeColor=#000000;fillColor=#FF9933;" parent="1" vertex="1">
          <mxGeometry x="954" y="1189.25" width="30" height="20" as="geometry" />
        </mxCell>
        <mxCell id="q3prYv0-p_nsQXFJC9uw-96" value="" style="rounded=0;whiteSpace=wrap;html=1;rotation=-180;strokeColor=#000000;fillColor=#FF9933;" parent="1" vertex="1">
          <mxGeometry x="984" y="1189.25" width="30" height="20" as="geometry" />
        </mxCell>
        <mxCell id="q3prYv0-p_nsQXFJC9uw-97" value="" style="rounded=0;whiteSpace=wrap;html=1;rotation=-180;strokeColor=#000000;fillColor=#FF9933;" parent="1" vertex="1">
          <mxGeometry x="1014" y="1189.25" width="30" height="20" as="geometry" />
        </mxCell>
        <mxCell id="q3prYv0-p_nsQXFJC9uw-98" value="20" style="rounded=0;whiteSpace=wrap;html=1;rotation=0;strokeColor=#000000;fillColor=#FF9933;" parent="1" vertex="1">
          <mxGeometry x="1044" y="1189.25" width="30" height="20" as="geometry" />
        </mxCell>
        <mxCell id="q3prYv0-p_nsQXFJC9uw-99" value="Time Slot Array [per node]" style="text;html=1;strokeColor=none;fillColor=none;align=center;verticalAlign=middle;whiteSpace=wrap;rounded=0;" parent="1" vertex="1">
          <mxGeometry x="474" y="1219.25" width="100" height="20" as="geometry" />
        </mxCell>
        <mxCell id="q3prYv0-p_nsQXFJC9uw-100" value="crw" style="text;html=1;strokeColor=none;fillColor=none;align=center;verticalAlign=middle;whiteSpace=wrap;rounded=0;" parent="1" vertex="1">
          <mxGeometry x="474" y="1169.25" width="100" height="20" as="geometry" />
        </mxCell>
        <mxCell id="q3prYv0-p_nsQXFJC9uw-101" value="crw" style="text;html=1;strokeColor=none;fillColor=none;align=center;verticalAlign=middle;whiteSpace=wrap;rounded=0;" parent="1" vertex="1">
          <mxGeometry x="499" y="1169.25" width="100" height="20" as="geometry" />
        </mxCell>
        <mxCell id="q3prYv0-p_nsQXFJC9uw-102" value="crw" style="text;html=1;strokeColor=none;fillColor=none;align=center;verticalAlign=middle;whiteSpace=wrap;rounded=0;" parent="1" vertex="1">
          <mxGeometry x="529" y="1169.25" width="100" height="20" as="geometry" />
        </mxCell>
        <mxCell id="q3prYv0-p_nsQXFJC9uw-103" value="crw" style="text;html=1;strokeColor=none;fillColor=none;align=center;verticalAlign=middle;whiteSpace=wrap;rounded=0;" parent="1" vertex="1">
          <mxGeometry x="559" y="1169.25" width="100" height="20" as="geometry" />
        </mxCell>
        <mxCell id="q3prYv0-p_nsQXFJC9uw-104" value="crw" style="text;html=1;strokeColor=none;fillColor=none;align=center;verticalAlign=middle;whiteSpace=wrap;rounded=0;" parent="1" vertex="1">
          <mxGeometry x="589" y="1169.25" width="100" height="20" as="geometry" />
        </mxCell>
        <mxCell id="q3prYv0-p_nsQXFJC9uw-105" value="crw" style="text;html=1;strokeColor=none;fillColor=none;align=center;verticalAlign=middle;whiteSpace=wrap;rounded=0;" parent="1" vertex="1">
          <mxGeometry x="954" y="1169.25" width="100" height="20" as="geometry" />
        </mxCell>
        <mxCell id="q3prYv0-p_nsQXFJC9uw-106" value="crw" style="text;html=1;strokeColor=none;fillColor=none;align=center;verticalAlign=middle;whiteSpace=wrap;rounded=0;" parent="1" vertex="1">
          <mxGeometry x="984" y="1169.25" width="100" height="20" as="geometry" />
        </mxCell>
        <mxCell id="q3prYv0-p_nsQXFJC9uw-107" value="crw" style="text;html=1;strokeColor=none;fillColor=none;align=center;verticalAlign=middle;whiteSpace=wrap;rounded=0;" parent="1" vertex="1">
          <mxGeometry x="1009" y="1169.25" width="100" height="20" as="geometry" />
        </mxCell>
        <mxCell id="q3prYv0-p_nsQXFJC9uw-108" value="crw" style="text;html=1;strokeColor=none;fillColor=none;align=center;verticalAlign=middle;whiteSpace=wrap;rounded=0;" parent="1" vertex="1">
          <mxGeometry x="919" y="1169.25" width="100" height="20" as="geometry" />
        </mxCell>
        <mxCell id="q3prYv0-p_nsQXFJC9uw-109" value="crw" style="text;html=1;strokeColor=none;fillColor=none;align=center;verticalAlign=middle;whiteSpace=wrap;rounded=0;" parent="1" vertex="1">
          <mxGeometry x="889" y="1169.25" width="100" height="20" as="geometry" />
        </mxCell>
        <mxCell id="q3prYv0-p_nsQXFJC9uw-110" value="(child crw)" style="text;html=1;strokeColor=none;fillColor=none;align=center;verticalAlign=middle;whiteSpace=wrap;rounded=0;" parent="1" vertex="1">
          <mxGeometry x="926.5" y="1149.25" width="100" height="20" as="geometry" />
        </mxCell>
        <mxCell id="q3prYv0-p_nsQXFJC9uw-113" value="&lt;div&gt;0&lt;/div&gt;" style="rounded=0;whiteSpace=wrap;html=1;rotation=-180;" parent="1" vertex="1">
          <mxGeometry x="630" y="810" width="30" height="20" as="geometry" />
        </mxCell>
        <mxCell id="q3prYv0-p_nsQXFJC9uw-114" value="" style="rounded=0;whiteSpace=wrap;html=1;rotation=0;strokeColor=#000000;fillColor=#FF9933;" parent="1" vertex="1">
          <mxGeometry x="660" y="810" width="30" height="20" as="geometry" />
        </mxCell>
        <mxCell id="q3prYv0-p_nsQXFJC9uw-115" value="" style="rounded=0;whiteSpace=wrap;html=1;rotation=-180;strokeColor=#000000;fillColor=#FF9933;" parent="1" vertex="1">
          <mxGeometry x="690" y="810" width="30" height="20" as="geometry" />
        </mxCell>
        <mxCell id="q3prYv0-p_nsQXFJC9uw-116" value="" style="rounded=0;whiteSpace=wrap;html=1;rotation=-180;strokeColor=#000000;fillColor=#FF9933;" parent="1" vertex="1">
          <mxGeometry x="720" y="810" width="30" height="20" as="geometry" />
        </mxCell>
        <mxCell id="q3prYv0-p_nsQXFJC9uw-117" value="" style="rounded=0;whiteSpace=wrap;html=1;rotation=-180;strokeColor=#000000;fillColor=#FF9933;" parent="1" vertex="1">
          <mxGeometry x="750" y="810" width="30" height="20" as="geometry" />
        </mxCell>
        <mxCell id="q3prYv0-p_nsQXFJC9uw-118" value="" style="rounded=0;whiteSpace=wrap;html=1;rotation=-180;strokeColor=#000000;fillColor=#FF9933;" parent="1" vertex="1">
          <mxGeometry x="780" y="810" width="30" height="20" as="geometry" />
        </mxCell>
        <mxCell id="q3prYv0-p_nsQXFJC9uw-119" value="" style="rounded=0;whiteSpace=wrap;html=1;rotation=-180;" parent="1" vertex="1">
          <mxGeometry x="810" y="810" width="30" height="20" as="geometry" />
        </mxCell>
        <mxCell id="q3prYv0-p_nsQXFJC9uw-120" value="" style="rounded=0;whiteSpace=wrap;html=1;rotation=-180;" parent="1" vertex="1">
          <mxGeometry x="840" y="810" width="30" height="20" as="geometry" />
        </mxCell>
        <mxCell id="q3prYv0-p_nsQXFJC9uw-121" value="" style="rounded=0;whiteSpace=wrap;html=1;rotation=-180;" parent="1" vertex="1">
          <mxGeometry x="870" y="810" width="30" height="20" as="geometry" />
        </mxCell>
        <mxCell id="q3prYv0-p_nsQXFJC9uw-122" value="" style="rounded=0;whiteSpace=wrap;html=1;rotation=-180;" parent="1" vertex="1">
          <mxGeometry x="900" y="810" width="30" height="20" as="geometry" />
        </mxCell>
        <mxCell id="q3prYv0-p_nsQXFJC9uw-123" value="" style="rounded=0;whiteSpace=wrap;html=1;rotation=-180;" parent="1" vertex="1">
          <mxGeometry x="930" y="810" width="30" height="20" as="geometry" />
        </mxCell>
        <mxCell id="q3prYv0-p_nsQXFJC9uw-124" value="" style="rounded=0;whiteSpace=wrap;html=1;rotation=-180;" parent="1" vertex="1">
          <mxGeometry x="960" y="810" width="30" height="20" as="geometry" />
        </mxCell>
        <mxCell id="q3prYv0-p_nsQXFJC9uw-125" value="" style="rounded=0;whiteSpace=wrap;html=1;rotation=-180;" parent="1" vertex="1">
          <mxGeometry x="990" y="810" width="30" height="20" as="geometry" />
        </mxCell>
        <mxCell id="q3prYv0-p_nsQXFJC9uw-126" value="" style="rounded=0;whiteSpace=wrap;html=1;rotation=-180;" parent="1" vertex="1">
          <mxGeometry x="1020" y="810" width="30" height="20" as="geometry" />
        </mxCell>
        <mxCell id="q3prYv0-p_nsQXFJC9uw-127" value="" style="rounded=0;whiteSpace=wrap;html=1;rotation=-180;" parent="1" vertex="1">
          <mxGeometry x="1050" y="810" width="30" height="20" as="geometry" />
        </mxCell>
        <mxCell id="q3prYv0-p_nsQXFJC9uw-128" value="" style="rounded=0;whiteSpace=wrap;html=1;rotation=-180;strokeColor=#000000;fillColor=#FF9933;" parent="1" vertex="1">
          <mxGeometry x="1080" y="810" width="30" height="20" as="geometry" />
        </mxCell>
        <mxCell id="q3prYv0-p_nsQXFJC9uw-129" value="" style="rounded=0;whiteSpace=wrap;html=1;rotation=-180;strokeColor=#000000;fillColor=#FF9933;" parent="1" vertex="1">
          <mxGeometry x="1110" y="810" width="30" height="20" as="geometry" />
        </mxCell>
        <mxCell id="q3prYv0-p_nsQXFJC9uw-130" value="" style="rounded=0;whiteSpace=wrap;html=1;rotation=-180;strokeColor=#000000;fillColor=#FF9933;" parent="1" vertex="1">
          <mxGeometry x="1140" y="810" width="30" height="20" as="geometry" />
        </mxCell>
        <mxCell id="q3prYv0-p_nsQXFJC9uw-131" value="" style="rounded=0;whiteSpace=wrap;html=1;rotation=-180;strokeColor=#000000;fillColor=#FF9933;" parent="1" vertex="1">
          <mxGeometry x="1170" y="810" width="30" height="20" as="geometry" />
        </mxCell>
        <mxCell id="q3prYv0-p_nsQXFJC9uw-132" value="20" style="rounded=0;whiteSpace=wrap;html=1;rotation=0;strokeColor=#000000;fillColor=#FF9933;" parent="1" vertex="1">
          <mxGeometry x="1200" y="810" width="30" height="20" as="geometry" />
        </mxCell>
        <mxCell id="q3prYv0-p_nsQXFJC9uw-133" value="Time Slot Array [per node]" style="text;html=1;strokeColor=none;fillColor=none;align=center;verticalAlign=middle;whiteSpace=wrap;rounded=0;" parent="1" vertex="1">
          <mxGeometry x="630" y="840" width="100" height="20" as="geometry" />
        </mxCell>
        <mxCell id="q3prYv0-p_nsQXFJC9uw-134" value="crw" style="text;html=1;strokeColor=none;fillColor=none;align=center;verticalAlign=middle;whiteSpace=wrap;rounded=0;" parent="1" vertex="1">
          <mxGeometry x="630" y="790" width="100" height="20" as="geometry" />
        </mxCell>
        <mxCell id="q3prYv0-p_nsQXFJC9uw-135" value="crw" style="text;html=1;strokeColor=none;fillColor=none;align=center;verticalAlign=middle;whiteSpace=wrap;rounded=0;" parent="1" vertex="1">
          <mxGeometry x="655" y="790" width="100" height="20" as="geometry" />
        </mxCell>
        <mxCell id="q3prYv0-p_nsQXFJC9uw-136" value="crw" style="text;html=1;strokeColor=none;fillColor=none;align=center;verticalAlign=middle;whiteSpace=wrap;rounded=0;" parent="1" vertex="1">
          <mxGeometry x="685" y="790" width="100" height="20" as="geometry" />
        </mxCell>
        <mxCell id="q3prYv0-p_nsQXFJC9uw-137" value="crw" style="text;html=1;strokeColor=none;fillColor=none;align=center;verticalAlign=middle;whiteSpace=wrap;rounded=0;" parent="1" vertex="1">
          <mxGeometry x="715" y="790" width="100" height="20" as="geometry" />
        </mxCell>
        <mxCell id="q3prYv0-p_nsQXFJC9uw-138" value="crw" style="text;html=1;strokeColor=none;fillColor=none;align=center;verticalAlign=middle;whiteSpace=wrap;rounded=0;" parent="1" vertex="1">
          <mxGeometry x="745" y="790" width="100" height="20" as="geometry" />
        </mxCell>
        <mxCell id="q3prYv0-p_nsQXFJC9uw-139" value="crw" style="text;html=1;strokeColor=none;fillColor=none;align=center;verticalAlign=middle;whiteSpace=wrap;rounded=0;" parent="1" vertex="1">
          <mxGeometry x="1110" y="790" width="100" height="20" as="geometry" />
        </mxCell>
        <mxCell id="q3prYv0-p_nsQXFJC9uw-140" value="crw" style="text;html=1;strokeColor=none;fillColor=none;align=center;verticalAlign=middle;whiteSpace=wrap;rounded=0;" parent="1" vertex="1">
          <mxGeometry x="1140" y="790" width="100" height="20" as="geometry" />
        </mxCell>
        <mxCell id="q3prYv0-p_nsQXFJC9uw-141" value="crw" style="text;html=1;strokeColor=none;fillColor=none;align=center;verticalAlign=middle;whiteSpace=wrap;rounded=0;" parent="1" vertex="1">
          <mxGeometry x="1165" y="790" width="100" height="20" as="geometry" />
        </mxCell>
        <mxCell id="q3prYv0-p_nsQXFJC9uw-142" value="crw" style="text;html=1;strokeColor=none;fillColor=none;align=center;verticalAlign=middle;whiteSpace=wrap;rounded=0;" parent="1" vertex="1">
          <mxGeometry x="1075" y="790" width="100" height="20" as="geometry" />
        </mxCell>
        <mxCell id="q3prYv0-p_nsQXFJC9uw-143" value="crw" style="text;html=1;strokeColor=none;fillColor=none;align=center;verticalAlign=middle;whiteSpace=wrap;rounded=0;" parent="1" vertex="1">
          <mxGeometry x="1045" y="790" width="100" height="20" as="geometry" />
        </mxCell>
        <mxCell id="q3prYv0-p_nsQXFJC9uw-144" value="(child crw)" style="text;html=1;strokeColor=none;fillColor=none;align=center;verticalAlign=middle;whiteSpace=wrap;rounded=0;" parent="1" vertex="1">
          <mxGeometry x="1100" y="770" width="100" height="20" as="geometry" />
        </mxCell>
        <mxCell id="q3prYv0-p_nsQXFJC9uw-145" value="epoch time / timeSlot size (80/4) = 20" style="text;html=1;strokeColor=none;fillColor=none;align=center;verticalAlign=middle;whiteSpace=wrap;rounded=0;" parent="1" vertex="1">
          <mxGeometry x="690" y="1267.5" width="170" height="30" as="geometry" />
        </mxCell>
        <mxCell id="q3prYv0-p_nsQXFJC9uw-146" value="" style="shape=curlyBracket;whiteSpace=wrap;html=1;rounded=1;flipH=1;labelPosition=right;verticalLabelPosition=middle;align=left;verticalAlign=middle;rotation=90;" parent="1" vertex="1">
          <mxGeometry x="766" y="1020" width="15" height="470" as="geometry" />
        </mxCell>
        <mxCell id="vsru8TXCUnkoxLvhWmqU-31" style="edgeStyle=orthogonalEdgeStyle;rounded=0;orthogonalLoop=1;jettySize=auto;html=1;exitX=0.5;exitY=0;exitDx=0;exitDy=0;entryX=0;entryY=0.5;entryDx=0;entryDy=0;" edge="1" parent="1" source="q3prYv0-p_nsQXFJC9uw-150" target="vsru8TXCUnkoxLvhWmqU-2">
          <mxGeometry relative="1" as="geometry" />
        </mxCell>
        <mxCell id="vsru8TXCUnkoxLvhWmqU-32" style="edgeStyle=orthogonalEdgeStyle;rounded=0;orthogonalLoop=1;jettySize=auto;html=1;exitX=0.5;exitY=1;exitDx=0;exitDy=0;entryX=0;entryY=0.5;entryDx=0;entryDy=0;" edge="1" parent="1" source="q3prYv0-p_nsQXFJC9uw-150" target="vsru8TXCUnkoxLvhWmqU-4">
          <mxGeometry relative="1" as="geometry" />
        </mxCell>
        <mxCell id="q3prYv0-p_nsQXFJC9uw-150" value="Initialisation" style="rounded=1;whiteSpace=wrap;html=1;" parent="1" vertex="1">
          <mxGeometry x="40" y="840" width="100" height="30" as="geometry" />
        </mxCell>
        <mxCell id="lgq6noS7nZ7h5ywPPUq3-11" style="edgeStyle=orthogonalEdgeStyle;rounded=0;orthogonalLoop=1;jettySize=auto;html=1;exitX=0.5;exitY=1;exitDx=0;exitDy=0;" parent="1" edge="1">
          <mxGeometry relative="1" as="geometry">
            <mxPoint x="1082.9999999999995" y="333.62" as="sourcePoint" />
            <mxPoint x="1082.9999999999995" y="333.62" as="targetPoint" />
          </mxGeometry>
        </mxCell>
        <mxCell id="lgq6noS7nZ7h5ywPPUq3-14" value="Generate OTAARegAck packet " style="text;html=1;strokeColor=none;fillColor=none;align=center;verticalAlign=middle;whiteSpace=wrap;rounded=0;" parent="1" vertex="1">
          <mxGeometry x="699" y="598.13" width="123" height="31.88" as="geometry" />
        </mxCell>
        <mxCell id="lgq6noS7nZ7h5ywPPUq3-19" value="Connected Idle" style="rounded=1;whiteSpace=wrap;html=1;" parent="1" vertex="1">
          <mxGeometry x="990" y="631.88" width="100" height="30" as="geometry" />
        </mxCell>
        <mxCell id="lgq6noS7nZ7h5ywPPUq3-20" value="&amp;nbsp;Queue their beacons" style="text;html=1;strokeColor=none;fillColor=none;align=center;verticalAlign=middle;whiteSpace=wrap;rounded=0;" parent="1" vertex="1">
          <mxGeometry x="930" y="603.76" width="75" height="29" as="geometry" />
        </mxCell>
        <mxCell id="vsru8TXCUnkoxLvhWmqU-21" value="" style="edgeStyle=orthogonalEdgeStyle;rounded=0;orthogonalLoop=1;jettySize=auto;html=1;entryX=0.5;entryY=1;entryDx=0;entryDy=0;" edge="1" parent="1" source="lgq6noS7nZ7h5ywPPUq3-34" target="q3prYv0-p_nsQXFJC9uw-93">
          <mxGeometry relative="1" as="geometry">
            <mxPoint x="907" y="1212" as="targetPoint" />
          </mxGeometry>
        </mxCell>
        <mxCell id="lgq6noS7nZ7h5ywPPUq3-34" value="Append parent&#39;s timeSlot" style="text;html=1;strokeColor=none;fillColor=none;align=center;verticalAlign=middle;whiteSpace=wrap;rounded=0;" parent="1" vertex="1">
          <mxGeometry x="710" y="1136.25" width="180" height="20" as="geometry" />
        </mxCell>
        <mxCell id="lgq6noS7nZ7h5ywPPUq3-70" style="edgeStyle=orthogonalEdgeStyle;rounded=0;orthogonalLoop=1;jettySize=auto;html=1;exitX=1;exitY=0.5;exitDx=0;exitDy=0;entryX=0.5;entryY=1;entryDx=0;entryDy=0;" parent="1" source="lgq6noS7nZ7h5ywPPUq3-69" edge="1">
          <mxGeometry relative="1" as="geometry">
            <mxPoint x="258.75" y="1112.4999999999998" as="targetPoint" />
          </mxGeometry>
        </mxCell>
        <mxCell id="lgq6noS7nZ7h5ywPPUq3-69" value="Update GPS Time on every parent beacon transmission" style="text;html=1;strokeColor=none;fillColor=none;align=center;verticalAlign=middle;whiteSpace=wrap;rounded=0;" parent="1" vertex="1">
          <mxGeometry x="115" y="1170" width="120" height="10" as="geometry" />
        </mxCell>
        <mxCell id="lgq6noS7nZ7h5ywPPUq3-74" value="QUEUE my and parent&#39;s beacon events" style="text;html=1;strokeColor=none;fillColor=none;align=center;verticalAlign=middle;whiteSpace=wrap;rounded=0;" parent="1" vertex="1">
          <mxGeometry x="845" y="1050.75" width="120" height="21.25" as="geometry" />
        </mxCell>
        <mxCell id="lgq6noS7nZ7h5ywPPUq3-76" value="" style="endArrow=classic;html=1;rounded=0;" parent="1" edge="1">
          <mxGeometry width="50" height="50" relative="1" as="geometry">
            <mxPoint x="1030" y="1087.25" as="sourcePoint" />
            <mxPoint x="1130" y="1087.25" as="targetPoint" />
          </mxGeometry>
        </mxCell>
        <mxCell id="lgq6noS7nZ7h5ywPPUq3-77" style="edgeStyle=orthogonalEdgeStyle;rounded=0;orthogonalLoop=1;jettySize=auto;html=1;" parent="1" edge="1">
          <mxGeometry relative="1" as="geometry">
            <mxPoint x="1130" y="1141.25" as="targetPoint" />
            <mxPoint x="1050" y="1087.25" as="sourcePoint" />
            <Array as="points">
              <mxPoint x="1090" y="1087.25" />
              <mxPoint x="1090" y="1141.25" />
              <mxPoint x="1130" y="1141.25" />
            </Array>
          </mxGeometry>
        </mxCell>
        <mxCell id="lgq6noS7nZ7h5ywPPUq3-78" value="Update GPSTime on every parent beacon" style="text;html=1;strokeColor=none;fillColor=none;align=center;verticalAlign=middle;whiteSpace=wrap;rounded=0;" parent="1" vertex="1">
          <mxGeometry x="1130" y="1010.75" width="135" height="31" as="geometry" />
        </mxCell>
        <mxCell id="lgq6noS7nZ7h5ywPPUq3-79" value="If parent disconnects, free the timeSlot and delete the parent-&amp;gt;return to IdleState" style="text;html=1;strokeColor=none;fillColor=none;align=center;verticalAlign=middle;whiteSpace=wrap;rounded=0;" parent="1" vertex="1">
          <mxGeometry x="1137.5" y="1072" width="135" height="31" as="geometry" />
        </mxCell>
        <mxCell id="lgq6noS7nZ7h5ywPPUq3-81" value="If child disconnects, free the timeSlot and delete the child" style="text;html=1;strokeColor=none;fillColor=none;align=center;verticalAlign=middle;whiteSpace=wrap;rounded=0;" parent="1" vertex="1">
          <mxGeometry x="1137.5" y="1130.75" width="135" height="31" as="geometry" />
        </mxCell>
        <mxCell id="lgq6noS7nZ7h5ywPPUq3-83" value="" style="endArrow=classic;html=1;rounded=0;exitX=1;exitY=0.5;exitDx=0;exitDy=0;" parent="1" edge="1">
          <mxGeometry width="50" height="50" relative="1" as="geometry">
            <mxPoint x="1090" y="647.87" as="sourcePoint" />
            <mxPoint x="1120" y="648" as="targetPoint" />
          </mxGeometry>
        </mxCell>
        <mxCell id="lgq6noS7nZ7h5ywPPUq3-85" value="If child disconnects, free the timeSlot and delete the child" style="text;html=1;strokeColor=none;fillColor=none;align=center;verticalAlign=middle;whiteSpace=wrap;rounded=0;" parent="1" vertex="1">
          <mxGeometry x="1122.5" y="632.76" width="135" height="31" as="geometry" />
        </mxCell>
        <mxCell id="vsru8TXCUnkoxLvhWmqU-3" value="" style="edgeStyle=orthogonalEdgeStyle;rounded=0;orthogonalLoop=1;jettySize=auto;html=1;" edge="1" parent="1" source="vsru8TXCUnkoxLvhWmqU-2" target="q3prYv0-p_nsQXFJC9uw-45">
          <mxGeometry relative="1" as="geometry" />
        </mxCell>
        <mxCell id="vsru8TXCUnkoxLvhWmqU-2" value="Software timestamp" style="rounded=0;whiteSpace=wrap;html=1;" vertex="1" parent="1">
          <mxGeometry x="110" y="602.38" width="100" height="89" as="geometry" />
        </mxCell>
        <mxCell id="vsru8TXCUnkoxLvhWmqU-6" value="" style="edgeStyle=orthogonalEdgeStyle;rounded=0;orthogonalLoop=1;jettySize=auto;html=1;" edge="1" parent="1" source="vsru8TXCUnkoxLvhWmqU-4" target="vsru8TXCUnkoxLvhWmqU-5">
          <mxGeometry relative="1" as="geometry" />
        </mxCell>
        <mxCell id="vsru8TXCUnkoxLvhWmqU-4" value="Software/ Hardware timestamp" style="rounded=0;whiteSpace=wrap;html=1;" vertex="1" parent="1">
          <mxGeometry x="110" y="1039.25" width="100" height="89" as="geometry" />
        </mxCell>
        <mxCell id="vsru8TXCUnkoxLvhWmqU-5" value="GPS Time" style="whiteSpace=wrap;html=1;aspect=fixed;" vertex="1" parent="1">
          <mxGeometry x="230" y="1056.25" width="55" height="55" as="geometry" />
        </mxCell>
        <mxCell id="vsru8TXCUnkoxLvhWmqU-12" style="edgeStyle=orthogonalEdgeStyle;rounded=0;orthogonalLoop=1;jettySize=auto;html=1;exitX=1;exitY=0.5;exitDx=0;exitDy=0;entryX=0;entryY=0.5;entryDx=0;entryDy=0;" edge="1" parent="1" source="vsru8TXCUnkoxLvhWmqU-8" target="q3prYv0-p_nsQXFJC9uw-43">
          <mxGeometry relative="1" as="geometry" />
        </mxCell>
        <mxCell id="vsru8TXCUnkoxLvhWmqU-8" value="Process of connecting a new child" style="rounded=1;whiteSpace=wrap;html=1;" vertex="1" parent="1">
          <mxGeometry x="579" y="616.88" width="120" height="60" as="geometry" />
        </mxCell>
        <mxCell id="vsru8TXCUnkoxLvhWmqU-30" value="" style="edgeStyle=orthogonalEdgeStyle;rounded=0;orthogonalLoop=1;jettySize=auto;html=1;" edge="1" parent="1" source="vsru8TXCUnkoxLvhWmqU-26" target="q3prYv0-p_nsQXFJC9uw-32">
          <mxGeometry relative="1" as="geometry" />
        </mxCell>
        <mxCell id="vsru8TXCUnkoxLvhWmqU-26" value="Process of finding a new parent" style="rounded=1;whiteSpace=wrap;html=1;" vertex="1" parent="1">
          <mxGeometry x="585" y="1056.25" width="120" height="60" as="geometry" />
        </mxCell>
        <mxCell id="vsru8TXCUnkoxLvhWmqU-38" style="edgeStyle=orthogonalEdgeStyle;rounded=0;orthogonalLoop=1;jettySize=auto;html=1;entryX=0.5;entryY=1;entryDx=0;entryDy=0;" edge="1" parent="1" source="vsru8TXCUnkoxLvhWmqU-35" target="q3prYv0-p_nsQXFJC9uw-119">
          <mxGeometry relative="1" as="geometry" />
        </mxCell>
        <mxCell id="vsru8TXCUnkoxLvhWmqU-35" value="Add child timeSlot to the time slot array" style="text;html=1;strokeColor=none;fillColor=none;align=center;verticalAlign=middle;whiteSpace=wrap;rounded=0;" vertex="1" parent="1">
          <mxGeometry x="781" y="720" width="180" height="20" as="geometry" />
        </mxCell>
      </root>
    </mxGraphModel>
  </diagram>
</mxfile>
